<svg width="32" height="32" viewBox="0 0 32 32" fill="none" xmlns="http://www.w3.org/2000/svg">
<path d="M0 0V32H32V0H0ZM2.90909 2.90909H29.0909V29.0909H2.90909V2.90909ZM20.6023 7.27557C18.7361 7.27557 18.0966 8.60968 18.0966 9.50568V11.8835C18.0966 13.0908 18.7542 14.2443 20.4545 14.2443C23.3084 14.2414 22.9631 12.082 22.9631 10.5824H20.733V11.3693H22.0483C22.0483 12.5402 21.5003 13.3267 20.4574 13.3267C19.6341 13.3267 19.1591 12.6126 19.1591 11.625V9.65057C19.1591 8.73566 20.0175 8.20739 20.6023 8.20739C21.6452 8.20739 22.0455 9.12216 22.0455 9.12216L22.8324 8.59091C22.8324 8.59091 22.4495 7.27557 20.6023 7.27557ZM12.4858 11.7699C11.1694 11.7699 9.1592 11.8966 7.27557 11.8239V12.4091C8.41011 12.6287 8.88352 12.5182 8.88352 14.1648V22.2102C8.88352 23.8742 8.40866 23.7463 7.27557 23.9659V24.571C7.82393 24.5521 8.77275 24.4972 9.74148 24.4972C10.6564 24.4972 11.846 24.5347 12.358 24.571V23.9659C10.8947 23.7652 10.4545 23.9295 10.4545 22.2102V18.8097C10.9491 18.846 11.371 18.8438 12.0284 18.8438C13.272 21.075 14.46 22.7415 15.1364 23.5284C16.3611 25.0091 18.3198 24.7907 18.7955 24.571V24.0227C18.0638 24.0213 17.3306 23.5279 16.8011 22.9432C15.9051 21.9745 14.6979 20.4009 13.7102 18.6278C15.3568 18.2249 16.5824 16.671 16.5824 15.1335C16.5824 12.8295 14.8073 11.7699 12.4858 11.7699ZM12.1023 12.6989C13.8215 12.6989 14.8438 13.5949 14.8438 15.2415C14.8423 16.8531 13.746 17.929 11.9176 17.929C11.2413 17.929 10.9302 17.9114 10.4545 17.875V12.7528C10.9302 12.6976 11.5525 12.6989 12.1023 12.6989Z" fill="#FF3333"/>
</svg>
