<svg width="134" height="39" viewBox="0 0 134 39" fill="none" xmlns="http://www.w3.org/2000/svg">
<path d="M23.0678 33.7008L12.3478 19.1808L17.3478 15.7008L27.9478 30.1008L23.0678 33.7008ZM14.7078 29.7008C12.6012 29.7008 10.6678 29.3408 8.90783 28.6208C7.14783 27.9008 5.6145 26.8874 4.30783 25.5808C3.00117 24.2741 1.98783 22.7408 1.26783 20.9808C0.547835 19.2208 0.187835 17.2874 0.187835 15.1808C0.187835 13.0741 0.547835 11.1408 1.26783 9.38078C1.98783 7.62078 3.00117 6.08745 4.30783 4.78078C5.6145 3.47411 7.14783 2.46078 8.90783 1.74078C10.6678 1.02078 12.6012 0.66078 14.7078 0.66078C16.8145 0.66078 18.7478 1.02078 20.5078 1.74078C22.2678 2.46078 23.8012 3.47411 25.1078 4.78078C26.4145 6.08745 27.4145 7.62078 28.1078 9.38078C28.8278 11.1408 29.1878 13.0741 29.1878 15.1808C29.1878 17.2608 28.8278 19.1941 28.1078 20.9808C27.4145 22.7408 26.4145 24.2741 25.1078 25.5808C23.8012 26.8874 22.2678 27.9008 20.5078 28.6208C18.7478 29.3408 16.8145 29.7008 14.7078 29.7008ZM14.7078 23.3008C15.8012 23.3008 16.8012 23.1008 17.7078 22.7008C18.6412 22.3008 19.4412 21.7408 20.1078 21.0208C20.8012 20.2741 21.3345 19.4074 21.7078 18.4208C22.0812 17.4341 22.2678 16.3541 22.2678 15.1808C22.2678 14.0074 22.0812 12.9274 21.7078 11.9408C21.3345 10.9541 20.8012 10.1008 20.1078 9.38078C19.4412 8.63411 18.6412 8.06078 17.7078 7.66078C16.8012 7.26078 15.8012 7.06078 14.7078 7.06078C13.6145 7.06078 12.6012 7.26078 11.6678 7.66078C10.7612 8.06078 9.96117 8.63411 9.26783 9.38078C8.5745 10.1008 8.04117 10.9541 7.66783 11.9408C7.32117 12.9274 7.14783 14.0074 7.14783 15.1808C7.14783 16.3541 7.32117 17.4474 7.66783 18.4608C8.04117 19.4474 8.5745 20.3008 9.26783 21.0208C9.96117 21.7408 10.7612 22.3008 11.6678 22.7008C12.6012 23.1008 13.6145 23.3008 14.7078 23.3008ZM34.4488 29.3008V1.30078H46.1688C48.2221 1.30078 50.1021 1.64745 51.8088 2.34078C53.5154 3.00745 54.9821 3.96745 56.2088 5.22078C57.4621 6.47411 58.4221 7.95411 59.0888 9.66078C59.7554 11.3674 60.0888 13.2474 60.0888 15.3008C60.0888 17.3541 59.7554 19.2474 59.0888 20.9808C58.4221 22.6874 57.4621 24.1674 56.2088 25.4208C54.9821 26.6474 53.5154 27.6074 51.8088 28.3008C50.1021 28.9674 48.2221 29.3008 46.1688 29.3008H34.4488ZM41.2488 24.6608L40.3288 23.3008H45.9688C47.0888 23.3008 48.0888 23.1141 48.9688 22.7408C49.8488 22.3408 50.5954 21.7941 51.2088 21.1008C51.8488 20.4074 52.3421 19.5674 52.6888 18.5808C53.0354 17.5941 53.2088 16.5008 53.2088 15.3008C53.2088 14.1008 53.0354 13.0074 52.6888 12.0208C52.3421 11.0341 51.8488 10.1941 51.2088 9.50078C50.5954 8.80745 49.8488 8.27411 48.9688 7.90078C48.0888 7.50078 47.0888 7.30078 45.9688 7.30078H40.2088L41.2488 6.02078V24.6608ZM74.7872 29.7008C72.4405 29.7008 70.4005 29.2341 68.6672 28.3008C66.9339 27.3408 65.5872 26.0474 64.6272 24.4208C63.6672 22.7674 63.1872 20.8874 63.1872 18.7808C63.1872 17.1541 63.4539 15.6608 63.9872 14.3008C64.5205 12.9408 65.2672 11.7674 66.2272 10.7808C67.1872 9.76745 68.3205 8.99411 69.6272 8.46078C70.9605 7.90078 72.4139 7.62078 73.9872 7.62078C75.4805 7.62078 76.8405 7.88745 78.0672 8.42078C79.3205 8.95411 80.4005 9.70078 81.3072 10.6608C82.2139 11.6208 82.9072 12.7541 83.3872 14.0608C83.8672 15.3674 84.0805 16.7941 84.0272 18.3408L83.9872 20.0608H67.0672L66.1472 16.4608H78.7872L78.1072 17.2208V16.4208C78.0539 15.7541 77.8405 15.1674 77.4672 14.6608C77.1205 14.1274 76.6539 13.7141 76.0672 13.4208C75.4805 13.1274 74.8139 12.9808 74.0672 12.9808C73.0272 12.9808 72.1339 13.1941 71.3872 13.6208C70.6672 14.0208 70.1205 14.6208 69.7472 15.4208C69.3739 16.1941 69.1872 17.1541 69.1872 18.3008C69.1872 19.4741 69.4272 20.5008 69.9072 21.3808C70.4139 22.2341 71.1339 22.9008 72.0672 23.3808C73.0272 23.8608 74.1605 24.1008 75.4672 24.1008C76.3739 24.1008 77.1739 23.9674 77.8672 23.7008C78.5872 23.4341 79.3605 22.9808 80.1872 22.3408L83.1872 26.5808C82.3605 27.3008 81.4805 27.8874 80.5472 28.3408C79.6139 28.7941 78.6539 29.1274 77.6672 29.3408C76.7072 29.5808 75.7472 29.7008 74.7872 29.7008ZM98.2247 29.7008C95.878 29.7008 93.838 29.2341 92.1047 28.3008C90.3714 27.3408 89.0247 26.0474 88.0647 24.4208C87.1047 22.7674 86.6247 20.8874 86.6247 18.7808C86.6247 17.1541 86.8914 15.6608 87.4247 14.3008C87.958 12.9408 88.7047 11.7674 89.6647 10.7808C90.6247 9.76745 91.758 8.99411 93.0647 8.46078C94.398 7.90078 95.8514 7.62078 97.4247 7.62078C98.918 7.62078 100.278 7.88745 101.505 8.42078C102.758 8.95411 103.838 9.70078 104.745 10.6608C105.651 11.6208 106.345 12.7541 106.825 14.0608C107.305 15.3674 107.518 16.7941 107.465 18.3408L107.425 20.0608H90.5047L89.5847 16.4608H102.225L101.545 17.2208V16.4208C101.491 15.7541 101.278 15.1674 100.905 14.6608C100.558 14.1274 100.091 13.7141 99.5047 13.4208C98.918 13.1274 98.2514 12.9808 97.5047 12.9808C96.4647 12.9808 95.5714 13.1941 94.8247 13.6208C94.1047 14.0208 93.558 14.6208 93.1847 15.4208C92.8114 16.1941 92.6247 17.1541 92.6247 18.3008C92.6247 19.4741 92.8647 20.5008 93.3447 21.3808C93.8514 22.2341 94.5714 22.9008 95.5047 23.3808C96.4647 23.8608 97.598 24.1008 98.9047 24.1008C99.8114 24.1008 100.611 23.9674 101.305 23.7008C102.025 23.4341 102.798 22.9808 103.625 22.3408L106.625 26.5808C105.798 27.3008 104.918 27.8874 103.985 28.3408C103.051 28.7941 102.091 29.1274 101.105 29.3408C100.145 29.5808 99.1847 29.7008 98.2247 29.7008ZM111.542 38.1008V8.06078H117.622L117.862 12.8208L116.662 12.4608C116.849 11.5808 117.302 10.7808 118.022 10.0608C118.742 9.34078 119.649 8.76745 120.742 8.34078C121.862 7.88745 123.036 7.66078 124.262 7.66078C126.076 7.66078 127.689 8.14078 129.102 9.10078C130.516 10.0341 131.622 11.3274 132.422 12.9808C133.249 14.6074 133.662 16.5008 133.662 18.6608C133.662 20.7941 133.249 22.6874 132.422 24.3408C131.622 25.9941 130.502 27.3008 129.062 28.2608C127.649 29.1941 126.022 29.6608 124.182 29.6608C122.982 29.6608 121.836 29.4341 120.742 28.9808C119.649 28.5274 118.729 27.9141 117.982 27.1408C117.236 26.3674 116.742 25.5274 116.502 24.6208L117.982 24.0608V38.1008H111.542ZM122.622 24.2608C123.582 24.2608 124.422 24.0341 125.142 23.5808C125.862 23.1008 126.422 22.4474 126.822 21.6208C127.222 20.7941 127.422 19.8074 127.422 18.6608C127.422 17.5408 127.222 16.5674 126.822 15.7408C126.422 14.8874 125.862 14.2341 125.142 13.7808C124.449 13.3008 123.609 13.0608 122.622 13.0608C121.636 13.0608 120.782 13.2874 120.062 13.7408C119.342 14.1941 118.782 14.8474 118.382 15.7008C117.982 16.5541 117.782 17.5408 117.782 18.6608C117.782 19.8074 117.982 20.7941 118.382 21.6208C118.782 22.4474 119.342 23.1008 120.062 23.5808C120.782 24.0341 121.636 24.2608 122.622 24.2608Z" fill="white"/>
</svg>
