<svg width="33" height="31" viewBox="0 0 33 31" fill="none" xmlns="http://www.w3.org/2000/svg">
<path d="M10.1883 31C22.3178 31 28.953 19.3109 28.953 9.19191C28.953 8.86481 28.953 8.53304 28.941 8.20595C30.2328 7.11831 31.3477 5.77176 32.2335 4.22937C31.0268 4.84817 29.748 5.256 28.4387 5.43963C29.8179 4.48086 30.8508 2.97231 31.3455 1.19437C30.0498 2.08717 28.6316 2.71391 27.1531 3.04714C26.1591 1.81591 24.8437 1.00025 23.4107 0.726519C21.9778 0.452784 20.5072 0.736247 19.2268 1.533C17.9464 2.32976 16.9276 3.59533 16.3283 5.1337C15.7289 6.67207 15.5824 8.39737 15.9115 10.0424C13.2894 9.88945 10.7243 9.09721 8.38242 7.71703C6.04056 6.33686 3.97428 4.39956 2.31761 2.0308C1.47658 3.72023 1.21992 5.7186 1.59974 7.62013C1.97955 9.52165 2.96738 11.1838 4.36262 12.269C3.31709 12.2277 2.29455 11.9011 1.37746 11.3157V11.4209C1.37927 13.1906 1.90641 14.9054 2.86979 16.2754C3.83317 17.6453 5.17369 18.5863 6.66477 18.9394C6.0988 19.1208 5.51415 19.2112 4.92711 19.2081C4.51325 19.2096 4.10023 19.165 3.69367 19.0749C4.1151 20.5984 4.93569 21.9304 6.04051 22.8844C7.14533 23.8384 8.47903 24.3666 9.85483 24.395C7.51764 26.53 4.6306 27.6879 1.6587 27.6823C1.13504 27.6849 0.611735 27.6497 0.0917969 27.5772C3.10812 29.8137 6.61113 31.0013 10.1883 31Z" fill="#EEEEEE"/>
</svg>
